<?xml version="1.0" standalone="no"?>
<!DOCTYPE svg PUBLIC "-//W3C//DTD SVG 20010904//EN"
 "http://www.w3.org/TR/2001/REC-SVG-20010904/DTD/svg10.dtd">
<svg version="1.0" xmlns="http://www.w3.org/2000/svg"
 width="1305.000000pt" height="1305.000000pt" viewBox="0 0 1305.000000 1305.000000"
 preserveAspectRatio="xMidYMid meet">
<metadata>
Created by potrace 1.14, written by Peter Selinger 2001-2017
</metadata>
<g transform="translate(0.000000,1305.000000) scale(0.100000,-0.100000)"
fill="#000000" stroke="none">
<path d="M6205 11628 c-268 -42 -280 -44 -352 -75 -17 -7 -35 -13 -40 -13 -40
0 -297 -123 -323 -155 -7 -8 -18 -15 -25 -15 -8 0 -27 -11 -43 -25 -17 -14
-35 -25 -41 -25 -6 0 -11 -5 -11 -10 0 -6 -12 -16 -27 -22 -47 -20 -84 -49
-77 -60 4 -7 2 -8 -5 -4 -19 12 -217 -127 -359 -251 -86 -76 -253 -296 -323
-428 -12 -22 -25 -42 -29 -45 -13 -8 -107 -212 -121 -260 -7 -25 -17 -51 -22
-57 -5 -7 -7 -20 -3 -28 3 -8 1 -15 -4 -15 -6 0 -10 -8 -10 -17 0 -24 -23 -83
-32 -83 -4 0 -8 -9 -8 -20 0 -11 -9 -50 -21 -87 -12 -38 -27 -87 -34 -109 -14
-45 -4 -85 11 -43 4 13 7 29 6 35 -1 6 5 17 13 24 8 7 15 21 15 31 0 10 5 21
10 24 6 3 10 18 11 33 1 39 34 134 43 125 4 -4 6 5 4 22 -2 21 2 31 14 33 14
3 15 -2 8 -33 -6 -28 -5 -37 9 -45 15 -9 14 -9 -1 -10 -10 0 -18 5 -18 10 0 6
-4 10 -9 10 -5 0 -7 -9 -4 -20 3 -11 10 -20 15 -20 15 0 1 -57 -26 -110 -22
-43 -39 -103 -50 -180 -11 -73 -22 -126 -28 -136 -4 -5 -9 -39 -12 -74 -3 -36
-10 -99 -16 -140 -5 -41 -10 -78 -10 -82 0 -4 7 -14 16 -23 9 -9 13 -23 9 -32
-5 -15 -7 -15 -15 -3 -8 12 -10 11 -10 -7 0 -12 5 -23 11 -25 5 -2 11 -20 12
-39 1 -20 7 -35 12 -33 6 3 11 -14 11 -36 2 -48 -3 -51 -18 -9 -13 39 -21 30
-23 -26 -1 -41 6 -57 18 -37 2 4 2 1 1 -5 -2 -7 0 -13 5 -13 4 0 8 -36 8 -80
0 -44 -3 -80 -7 -80 -10 0 0 -83 12 -97 6 -7 7 -13 2 -13 -5 0 -2 -5 6 -10 11
-7 11 -10 2 -10 -9 0 -10 -5 -4 -17 5 -10 12 -43 16 -73 17 -133 137 -631 197
-815 23 -71 57 -162 76 -203 33 -72 124 -215 147 -230 6 -4 28 -28 49 -54 21
-26 45 -54 53 -63 9 -9 42 -46 73 -84 31 -37 75 -87 96 -111 22 -24 63 -68 90
-98 28 -31 100 -106 161 -169 l112 -113 -9 42 c-5 24 -20 79 -34 123 -24 76
-59 275 -69 395 -6 71 -30 201 -53 287 -12 47 -18 103 -18 183 0 135 21 207
88 306 57 83 164 202 199 220 16 8 46 31 67 50 33 29 44 34 80 31 45 -4 65 10
38 25 -27 15 -40 47 -26 64 6 8 15 14 19 14 15 0 49 -70 43 -86 -6 -15 6 -16
128 -9 74 5 159 7 189 5 140 -10 155 -8 186 30 16 19 36 42 45 51 16 16 35
145 30 196 -1 13 1 28 6 35 11 19 15 51 5 57 -14 11 -42 60 -42 76 0 8 -5 15
-11 15 -5 0 -7 -4 -4 -10 10 -17 -24 -11 -44 8 -55 52 -88 74 -116 78 -16 2
-48 6 -70 8 -22 3 -60 10 -85 16 -93 22 -119 23 -143 7 -13 -8 -40 -15 -61
-15 -20 0 -45 -7 -54 -14 -11 -10 -31 -13 -59 -10 -41 4 -43 6 -37 31 4 14 10
31 14 36 4 6 10 21 13 35 6 26 151 248 253 386 32 45 65 90 72 100 7 10 33 48
57 84 25 36 54 80 66 98 28 43 74 61 179 72 109 11 448 5 520 -9 60 -12 117
-48 216 -133 33 -29 122 -104 197 -166 191 -157 376 -375 377 -445 0 -17 -2
-17 -22 -3 -25 18 -168 23 -168 6 0 -5 -10 -10 -22 -10 -36 0 -101 -10 -123
-20 -11 -4 -49 -15 -85 -24 -121 -30 -176 -50 -172 -65 1 -6 -10 -11 -25 -11
-26 0 -70 -19 -48 -20 6 -1 0 -5 -13 -11 -13 -5 -20 -14 -17 -20 4 -6 -5 -23
-19 -38 -33 -35 -44 -106 -18 -121 9 -5 13 -10 7 -10 -5 0 -11 -23 -12 -51 -2
-39 2 -56 15 -68 9 -9 22 -25 28 -36 6 -11 20 -24 32 -30 12 -5 22 -15 22 -21
0 -30 38 -45 116 -45 88 -1 337 17 371 27 13 4 30 22 40 45 18 42 33 48 53 24
10 -13 10 -19 -5 -35 -18 -20 -17 -20 43 -20 49 0 64 -4 74 -19 8 -11 36 -30
63 -43 28 -12 57 -32 65 -42 8 -11 28 -31 43 -45 76 -69 99 -97 127 -155 45
-96 62 -183 57 -300 -8 -212 -30 -484 -52 -651 -1 -11 -8 -33 -14 -50 -7 -16
-11 -45 -10 -65 2 -39 -5 -76 -27 -133 -8 -20 -14 -49 -14 -63 0 -19 -4 -25
-14 -21 -17 7 -36 -40 -36 -86 0 -29 0 -30 -20 -12 -15 14 -20 15 -20 4 0 -33
-22 -88 -55 -139 -24 -37 -35 -66 -35 -91 0 -44 -44 -167 -54 -150 -12 19 -26
12 -26 -13 0 -13 -7 -29 -15 -36 -11 -9 -13 -16 -6 -23 12 -12 41 8 41 29 0 8
6 14 14 14 7 0 19 12 25 28 16 36 42 66 64 75 32 12 99 -4 104 -24 4 -12 15
-19 32 -20 63 -3 116 2 125 11 6 6 25 10 42 10 18 0 35 4 38 9 3 5 17 8 31 9
37 0 65 29 65 68 0 40 19 84 36 84 7 0 15 8 19 19 4 13 12 17 31 13 31 -6 50
-32 66 -95 17 -67 41 -82 116 -72 31 4 81 8 110 9 47 1 52 3 52 24 0 20 17 60
31 72 3 3 14 20 25 38 17 30 23 33 56 29 20 -2 51 -13 70 -25 53 -32 94 -35
192 -13 53 11 96 16 105 11 9 -4 45 -8 81 -7 82 0 104 -7 118 -38 17 -36 40
-42 59 -15 10 13 22 20 34 17 10 -3 17 0 16 7 -1 6 4 10 11 9 15 -4 15 -3 -2
39 -12 28 -27 40 -78 63 -71 31 -102 59 -140 125 -29 50 -26 69 16 111 l26 26
-21 26 c-23 30 -26 48 -15 93 l7 31 -58 6 c-69 7 -95 2 -145 -30 -49 -30 -74
-29 -95 3 -20 32 -20 82 0 123 9 17 19 45 22 63 4 18 17 50 29 70 l21 37 -21
22 c-19 18 -26 19 -59 10 -26 -7 -43 -7 -51 0 -6 5 -18 8 -25 7 -8 -2 -13 3
-12 10 2 6 -2 12 -7 12 -6 0 -24 29 -41 65 -23 47 -37 65 -51 65 -10 0 -16 -4
-13 -10 3 -5 2 -10 -3 -10 -6 0 -9 -8 -8 -17 0 -11 -5 -17 -13 -15 -11 2 -12
0 -3 -11 7 -8 10 -21 7 -29 -11 -28 -12 -93 -2 -106 5 -7 12 -47 14 -90 5 -99
25 -161 65 -198 48 -45 88 -114 88 -151 0 -18 5 -33 10 -33 17 0 11 -29 -10
-50 -11 -11 -20 -26 -20 -32 0 -7 -14 -33 -30 -57 -17 -24 -30 -48 -30 -52 0
-14 -49 -22 -64 -10 -19 16 -50 16 -138 1 -87 -15 -140 -6 -182 33 -27 25 -47
86 -39 119 7 27 63 108 74 108 4 0 20 5 36 11 34 15 79 12 115 -7 96 -50 64
52 -39 122 -34 23 -71 45 -81 49 -11 3 -23 13 -26 21 -3 8 -11 12 -16 9 -6 -4
-9 -3 -8 2 5 14 -11 14 -28 1 -9 -7 -29 -25 -44 -40 -44 -44 -47 -32 -3 15 41
45 103 130 103 144 1 4 26 35 56 67 49 53 114 162 114 191 0 6 16 38 36 71 19
32 38 72 41 89 3 16 18 57 34 90 15 33 37 94 49 135 12 41 24 82 27 90 9 23
14 43 17 65 1 11 9 34 17 50 11 23 14 80 13 255 -1 338 -13 482 -60 740 -3 18
-2 21 5 10 7 -13 19 -62 26 -110 1 -8 9 -55 18 -105 8 -49 19 -138 22 -197 12
-190 44 -112 50 120 2 90 0 137 -5 122 -8 -22 -8 -21 -7 12 0 20 4 35 8 32 17
-10 -17 224 -65 446 -9 41 -19 100 -23 130 -3 30 -19 93 -35 139 -17 48 -26
91 -22 103 4 13 2 18 -4 14 -13 -8 -26 29 -16 45 3 6 -4 24 -16 41 -12 16 -24
41 -26 56 -5 25 -3 25 20 -9 13 -20 41 -76 60 -125 33 -80 36 -84 31 -44 -16
139 -66 320 -111 412 -19 37 -34 73 -34 80 0 23 -133 231 -188 293 -19 22 -53
62 -76 88 -22 27 -56 64 -75 82 -19 18 -36 43 -38 55 -2 11 -14 31 -27 43 -14
13 -28 35 -31 50 -4 15 -11 27 -17 27 -5 0 -6 5 -2 11 4 8 -1 9 -17 4 -19 -5
-21 -4 -9 4 9 7 11 14 5 19 -6 4 -23 26 -38 48 -16 23 -49 63 -75 88 -26 25
-51 50 -57 56 -24 25 -81 70 -88 70 -5 0 -5 5 -2 10 3 6 1 10 -6 10 -7 0 -21
7 -31 17 -14 13 -18 13 -18 2 0 -8 -9 1 -20 19 -11 17 -24 32 -30 32 -5 0 -10
7 -10 16 0 9 -5 12 -12 8 -7 -4 -8 -3 -4 4 7 12 -29 54 -38 44 -3 -3 -6 0 -6
6 0 7 -5 12 -10 12 -6 0 -22 12 -35 26 -14 15 -25 21 -25 15 0 -9 -5 -8 -15 3
-8 8 -15 19 -15 25 0 21 -66 55 -178 91 -148 47 -258 68 -274 52 -7 -7 -24
-12 -39 -12 -38 0 -59 -10 -59 -26 0 -8 -4 -14 -10 -14 -5 0 -20 -10 -32 -22
-20 -20 -23 -21 -26 -5 -2 9 -8 17 -13 17 -6 0 -7 5 -4 10 3 6 -1 10 -9 10 -9
0 -16 -7 -16 -16 0 -8 -4 -13 -9 -9 -5 3 -19 -6 -30 -21 -11 -14 -24 -23 -30
-20 -5 3 -19 -10 -31 -29 -23 -36 -50 -47 -50 -19 0 12 -3 14 -12 6 -7 -6 -26
-12 -43 -14 -17 -2 -29 -8 -27 -15 1 -8 -9 -13 -27 -13 -17 0 -33 -5 -36 -10
-11 -18 -23 -2 -18 24 6 29 -20 61 -39 50 -13 -8 4 17 30 45 7 8 20 24 29 37
8 13 21 24 29 24 13 0 34 30 34 49 0 6 -24 18 -52 27 -62 19 -346 28 -443 12z
m380 -218 c-3 -5 -11 -10 -16 -10 -6 0 -7 5 -4 10 3 6 11 10 16 10 6 0 7 -4 4
-10z m-48 -19 c0 -11 -5 -17 -9 -15 -11 7 -10 34 1 34 6 0 9 -9 8 -19z m-27
-14 c0 -8 -7 -14 -15 -14 -25 0 -17 17 13 26 1 1 2 -5 2 -12z m-20 -32 c0 -2
-7 -5 -15 -9 -9 -3 -15 0 -15 9 0 9 6 12 15 9 8 -4 15 -7 15 -9z m-85 -58
c-10 -8 -15 -19 -12 -24 9 -15 -13 -29 -48 -31 -23 -1 -26 1 -15 8 8 5 11 10
7 10 -11 0 25 36 43 43 30 11 45 8 25 -6z m-1675 -701 c0 -3 -4 -8 -10 -11 -5
-3 -10 -1 -10 4 0 6 5 11 10 11 6 0 10 -2 10 -4z m-22 -44 c2 -7 -3 -12 -12
-12 -9 0 -16 7 -16 16 0 17 22 14 28 -4z m-66 -74 c-5 -7 -13 -30 -17 -50 -4
-21 -11 -38 -16 -38 -5 0 -9 -10 -9 -23 0 -27 -15 -47 -52 -70 -16 -10 -28
-24 -28 -32 0 -8 -9 -15 -21 -15 -11 0 -17 5 -14 10 4 6 11 8 16 5 5 -4 9 3 9
14 0 40 78 179 117 208 20 15 30 9 15 -9z m-132 -248 c0 -5 -4 -10 -9 -10 -5
0 -17 -20 -27 -45 -13 -36 -21 -45 -41 -45 l-24 0 20 22 c12 12 24 31 27 41 4
11 12 26 18 33 13 16 36 18 36 4z m3050 -1325 c0 -8 -4 -15 -10 -15 -5 0 -10
7 -10 15 0 8 5 15 10 15 6 0 10 -7 10 -15z m20 -29 c0 -8 6 -16 14 -19 34 -13
86 -165 67 -196 -9 -14 -43 -10 -63 7 -8 6 -18 9 -21 5 -4 -3 -7 -1 -7 5 0 7
-7 12 -15 12 -8 0 -15 7 -15 15 0 8 -8 15 -18 15 -27 0 -72 23 -72 38 0 6 -7
12 -17 12 -9 0 -13 3 -10 7 4 3 2 11 -3 18 -7 8 13 23 68 53 85 46 92 48 92
28z m-1937 -42 c-5 -13 -47 -34 -68 -34 -12 0 -12 5 -4 24 9 19 18 24 44 23
19 -1 31 -7 28 -13z m-41 -136 c-2 -12 3 -16 15 -14 14 3 18 -3 19 -33 1 -20
0 -31 -3 -24 -3 10 -7 10 -18 0 -7 -7 -11 -15 -8 -19 2 -5 1 -8 -4 -9 -27 -2
-47 -9 -57 -19 -8 -8 -6 -9 9 -4 16 5 17 4 9 -6 -7 -6 -21 -9 -32 -6 -15 5
-20 15 -20 41 0 19 4 38 9 41 5 3 9 16 9 29 0 27 25 46 55 42 13 -1 19 -8 17
-19z m1838 -22 c0 -3 -4 -8 -10 -11 -5 -3 -10 -1 -10 4 0 6 5 11 10 11 6 0 10
-2 10 -4z m-100 -66 c0 -16 -7 -20 -30 -20 -49 0 -37 37 13 39 11 1 17 -6 17
-19z m116 -1 c64 -19 134 -68 134 -92 0 -13 -65 1 -103 22 -18 11 -56 25 -84
32 -37 9 -53 18 -53 29 0 36 14 37 106 9z m-1632 -60 c-3 -5 -15 -9 -27 -9
-12 0 -53 -12 -92 -25 -83 -29 -75 -28 -75 -11 0 7 15 19 33 26 17 7 47 19 65
27 18 8 40 12 47 9 8 -3 17 -1 21 5 4 6 11 6 20 -2 7 -6 11 -15 8 -20z m1324
-116 c14 -44 5 -57 -32 -47 -35 9 -42 28 -22 59 23 35 41 31 54 -12z m-1102
-1 c6 -4 14 -17 18 -29 5 -16 2 -25 -15 -33 -28 -16 -41 -1 -33 38 7 33 11 37
30 24z m2162 -1431 c-13 -17 -29 -30 -37 -30 -9 -1 -4 10 14 29 37 39 54 39
23 1z m-70 -63 c-7 -13 -24 -32 -36 -44 -19 -17 -21 -22 -9 -27 8 -3 20 0 26
6 8 8 11 7 11 -6 0 -10 5 -14 15 -11 9 4 15 0 16 -7 0 -8 6 -1 13 15 l13 28 7
-23 c7 -23 8 -23 15 -5 7 19 8 19 13 -1 3 -12 1 -26 -6 -33 -8 -8 -6 -9 8 -4
17 6 18 4 12 -20 -4 -18 -3 -25 3 -21 7 3 8 0 5 -9 -3 -9 -1 -16 5 -16 16 0
14 -25 -3 -40 -8 -6 -12 -18 -9 -26 3 -8 0 -14 -7 -14 -6 0 -8 -4 -5 -10 3 -6
-4 -10 -16 -10 -18 0 -20 3 -11 12 20 20 14 31 -13 24 -21 -5 -25 -3 -26 16 0
22 -1 22 -9 3 -7 -17 -9 -17 -9 -2 -1 9 -10 26 -20 36 -12 12 -17 27 -14 40 3
12 1 21 -6 21 -5 0 -8 -7 -5 -15 4 -9 0 -15 -10 -15 -11 0 -16 9 -16 30 0 21
5 30 16 30 8 0 13 4 10 9 -3 4 -17 6 -31 3 -21 -4 -24 -1 -19 14 4 12 -3 8
-20 -11 -14 -16 -26 -24 -26 -18 0 10 -6 10 -25 1 -14 -6 -25 -17 -25 -25 0
-7 -9 -13 -20 -13 -11 0 -20 2 -20 5 0 6 107 74 134 85 12 5 37 23 56 39 42
36 55 39 38 9z m-88 -137 c0 -6 -4 -13 -10 -16 -5 -3 -10 1 -10 9 0 9 5 16 10
16 6 0 10 -4 10 -9z m-120 -31 c13 -9 13 -11 0 -20 -22 -15 -29 -12 -27 10 1
22 6 24 27 10z m-20 -70 c0 -5 -7 -10 -15 -10 -8 0 -15 5 -15 10 0 6 7 10 15
10 8 0 15 -4 15 -10z m-10 -30 c0 -5 -4 -10 -10 -10 -5 0 -10 5 -10 10 0 6 5
10 10 10 6 0 10 -4 10 -10z m75 -10 c-3 -5 -16 -10 -28 -9 -21 0 -21 1 -2 9
28 12 37 12 30 0z m-215 -60 c0 -5 -4 -10 -10 -10 -5 0 -10 5 -10 10 0 6 5 10
10 10 6 0 10 -4 10 -10z m-20 -46 c0 -8 -5 -12 -10 -9 -6 4 -8 11 -5 16 9 14
15 11 15 -7z m220 -126 c0 6 5 12 10 12 18 0 11 -29 -10 -40 -11 -6 -19 -14
-16 -18 2 -4 -10 -8 -27 -9 -18 0 -26 1 -19 4 6 2 12 11 12 19 0 9 5 12 11 9
6 -4 13 3 16 15 4 16 8 18 14 8 7 -10 9 -10 9 0z m-80 -42 c0 -3 -4 -8 -10
-11 -5 -3 -10 -1 -10 4 0 6 5 11 10 11 6 0 10 -2 10 -4z"/>
<path d="M8225 6730 c3 -5 11 -10 16 -10 6 0 7 5 4 10 -3 6 -11 10 -16 10 -6
0 -7 -4 -4 -10z"/>
<path d="M4265 9717 c-9 -40 -16 -107 -9 -87 3 8 8 22 11 30 4 8 7 18 8 23 2
4 3 8 4 10 2 1 4 12 7 24 6 35 -13 36 -21 0z"/>
<path d="M8760 9665 c0 -14 4 -25 9 -25 4 0 6 11 3 25 -2 14 -6 25 -8 25 -2 0
-4 -11 -4 -25z"/>
<path d="M4280 8970 c0 -5 5 -10 10 -10 6 0 10 5 10 10 0 6 -4 10 -10 10 -5 0
-10 -4 -10 -10z"/>
<path d="M12194 8329 c-26 -52 -16 -206 18 -256 76 -114 159 -147 266 -105 64
26 170 59 210 67 24 5 32 11 28 22 -3 8 -6 17 -6 19 0 2 -12 4 -28 4 -17 0
-40 12 -60 29 -35 33 -40 49 -17 56 8 3 23 8 33 12 16 6 16 6 0 10 -10 3 -18
8 -18 12 0 8 -65 42 -155 81 -27 12 -72 33 -100 45 -27 13 -73 26 -102 30 -51
7 -52 6 -69 -26z"/>
<path d="M11905 8310 c4 -13 -5 -20 -35 -29 -42 -12 -47 -20 -28 -39 21 -21
49 -14 60 16 6 16 20 33 31 38 34 15 33 35 -2 32 -24 -2 -30 -6 -26 -18z"/>
<path d="M7238 8303 c-11 -3 -18 -14 -18 -29 0 -13 -4 -24 -9 -24 -16 0 -71
22 -71 28 0 11 -80 8 -81 -3 -2 -11 92 -63 135 -76 48 -14 135 -21 172 -15 37
7 47 26 13 26 -11 0 -17 4 -14 10 3 6 -1 7 -9 4 -11 -4 -16 0 -17 12 0 18 -1
17 -9 -1 -5 -11 -9 -14 -9 -6 -1 11 -4 11 -16 1 -13 -11 -14 -10 -9 4 3 9 2
16 -4 16 -6 0 -12 -6 -14 -12 -3 -7 -7 -2 -10 10 -5 17 -2 22 14 22 11 0 18 5
15 13 -2 6 -14 11 -27 9 -14 -2 -20 0 -16 7 4 6 6 10 4 10 -2 -1 -11 -3 -20
-6z"/>
<path d="M7162 8288 c5 -15 28 -23 28 -10 0 5 -7 13 -16 16 -10 4 -14 1 -12
-6z"/>
<path d="M5890 8260 c-51 -16 -66 -30 -41 -38 6 -2 11 1 11 7 0 6 9 11 20 11
27 0 25 -5 -12 -42 -20 -19 -28 -33 -20 -36 20 -6 3 -22 -24 -22 -13 0 -24 -4
-24 -8 0 -14 76 -5 142 18 60 21 148 81 148 101 0 12 -37 12 -45 0 -8 -13 -65
-41 -84 -41 -9 0 -28 -6 -43 -14 -22 -12 -28 -12 -32 -1 -3 8 5 16 19 19 18 5
22 11 18 27 -5 19 -3 21 26 14 20 -4 31 -3 31 5 0 6 -5 8 -11 4 -6 -3 -14 -2
-18 3 -4 7 -26 4 -61 -7z"/>
<path d="M1593 7596 c-23 -6 -48 -16 -54 -23 -20 -20 -24 -158 -6 -186 8 -13
21 -25 29 -26 67 -9 150 -16 154 -12 2 2 4 55 4 117 0 98 -2 115 -17 122 -33
17 -68 20 -110 8z"/>
<path d="M6215 7593 c-48 -12 -73 -71 -43 -101 7 -7 9 -12 4 -12 -4 0 -1 -7 8
-15 15 -16 61 -21 52 -7 -3 5 5 14 17 20 26 13 129 34 147 30 27 -6 19 20 -12
44 -55 41 -114 55 -173 41z"/>
<path d="M6704 7575 c-23 -13 -49 -36 -58 -49 -27 -42 -50 -49 -80 -25 -24 18
-27 19 -32 4 -5 -13 -8 -14 -15 -3 -7 10 -9 10 -9 1 0 -7 -5 -13 -11 -13 -5 0
-7 6 -3 13 6 8 3 8 -9 -1 -9 -8 -20 -11 -26 -8 -16 10 -42 -5 -51 -30 -5 -13
-29 -36 -52 -51 -24 -15 -54 -38 -68 -51 -14 -12 -36 -25 -50 -28 -53 -12 -60
-16 -60 -33 0 -17 -47 -51 -72 -51 -8 0 -23 -9 -34 -21 -10 -12 -60 -45 -109
-74 -98 -58 -147 -108 -164 -171 -10 -35 -9 -41 9 -56 11 -9 20 -28 20 -42 0
-16 6 -26 15 -26 8 0 15 -6 15 -12 1 -7 10 -24 20 -37 18 -21 24 -22 63 -13
23 6 55 9 71 7 16 -2 42 3 57 11 16 8 38 14 50 14 12 0 42 15 68 33 74 54 142
70 273 64 78 -3 146 1 218 13 89 14 112 15 155 4 27 -7 51 -11 53 -9 2 2 25
-4 51 -14 29 -12 74 -19 123 -19 53 0 83 -5 92 -15 29 -29 146 -2 146 35 0 5
9 19 21 31 18 19 19 30 14 80 -6 48 -5 57 9 57 20 0 20 -2 -4 47 -13 27 -29
44 -52 53 -18 7 -68 30 -112 51 -43 22 -84 39 -91 39 -7 0 -25 10 -40 21 -22
18 -29 20 -36 8 -7 -12 -14 -11 -41 5 -18 10 -63 34 -101 53 -37 19 -69 39
-72 43 -3 5 -20 12 -38 16 -49 10 -76 35 -66 61 7 18 13 20 56 16 26 -3 53 -9
58 -13 6 -4 25 -10 42 -13 25 -5 39 -1 59 17 87 74 -93 147 -202 81z m-179
-203 c-11 -2 -24 -10 -28 -18 -11 -20 -26 -17 -22 4 2 9 4 22 4 29 1 9 8 9 34
0 26 -9 28 -12 12 -15z m63 -27 c2 -2 4 -20 5 -42 2 -46 27 -64 69 -50 32 10
82 -3 145 -39 24 -14 44 -24 45 -23 10 3 58 -15 58 -22 0 -5 9 -9 20 -9 11 0
20 -4 20 -10 0 -5 8 -10 18 -10 10 0 36 -16 58 -35 l39 -34 -35 6 c-19 3 -42
12 -51 19 -22 19 -65 17 -125 -6 -29 -10 -54 -16 -58 -13 -3 3 -16 -1 -28 -9
-13 -7 -43 -13 -67 -12 -58 3 -95 -11 -87 -32 5 -14 1 -15 -30 -9 -26 4 -40 2
-46 -7 -6 -9 -7 -6 -3 10 3 12 3 22 -2 22 -4 1 -36 2 -69 3 -39 2 -68 -1 -80
-10 -12 -9 -21 -10 -30 -2 -8 6 -19 7 -26 2 -21 -13 -108 -10 -108 5 0 6 -11
12 -25 12 -14 0 -25 -4 -25 -8 0 -4 -13 -16 -30 -25 l-30 -18 9 24 c6 14 8 27
5 30 -4 4 60 57 70 57 2 0 31 17 63 38 71 46 156 88 202 97 30 6 33 9 27 37
-4 19 0 38 11 54 14 22 21 25 52 19 20 -4 37 -8 39 -10z"/>
<path d="M6516 7535 c4 -8 10 -12 15 -9 11 6 2 24 -11 24 -5 0 -7 -7 -4 -15z"/>
<path d="M10756 7294 c-20 -19 -20 -28 -1 -44 8 -6 13 -17 12 -23 -4 -21 69
-18 97 4 26 21 26 22 9 38 -21 19 -68 41 -88 41 -7 0 -21 -7 -29 -16z"/>
<path d="M4720 7146 c-12 -15 -10 -176 3 -176 4 0 7 4 7 10 0 5 7 7 15 4 12
-5 15 2 15 29 0 22 6 37 15 41 9 3 15 18 15 38 0 26 -6 37 -29 50 -24 13 -32
14 -41 4z"/>
<path d="M4651 7099 c-1 -38 22 -61 33 -33 3 8 -1 14 -9 14 -7 0 -16 12 -18
28 -3 22 -4 21 -6 -9z"/>
<path d="M2115 7003 c-43 -11 -52 -30 -44 -86 4 -28 10 -74 13 -102 2 -27 5
-51 5 -52 2 -9 26 0 51 18 22 17 38 21 70 16 32 -4 42 -2 50 13 12 23 13 160
1 178 -9 14 -111 25 -146 15z"/>
<path d="M4706 6935 c-8 -8 -22 -12 -30 -9 -40 15 -44 -8 -45 -216 0 -189 1
-200 20 -210 11 -6 17 -15 15 -19 -3 -5 4 -8 16 -7 26 1 40 41 25 70 -15 30
-2 108 21 127 29 23 66 150 58 197 -4 20 -8 47 -9 60 -2 17 -8 22 -29 22 -15
0 -33 -7 -42 -15z"/>
<path d="M11667 6903 c-13 -16 -14 -52 -7 -309 5 -188 11 -298 19 -312 11 -20
20 -22 90 -22 l79 0 11 32 c7 20 11 131 11 308 -1 335 4 320 -109 320 -62 0
-81 -4 -94 -17z"/>
<path d="M4152 6896 c-8 -13 -14 -463 -6 -491 4 -15 13 -21 32 -20 21 0 28 -5
30 -22 4 -27 20 -31 22 -5 6 105 10 481 6 507 -6 29 -11 33 -42 37 -19 2 -38
-1 -42 -6z"/>
<path d="M11193 6892 c-16 -15 -18 -42 -18 -257 0 -302 -1 -300 130 -306 l70
-4 17 35 c21 42 23 100 7 340 -9 128 -16 180 -27 193 -22 25 -154 25 -179 -1z"/>
<path d="M3670 6861 c-10 -20 -7 -25 39 -63 19 -16 20 -24 15 -106 -7 -99 1
-126 54 -174 38 -35 58 -35 102 1 34 29 34 29 34 112 0 65 -4 92 -19 117 -11
17 -22 32 -25 32 -3 0 -30 22 -60 50 -45 40 -62 49 -92 50 -27 0 -40 -5 -48
-19z"/>
<path d="M12346 6732 c-10 -17 -15 -204 -6 -222 13 -24 66 -36 86 -20 11 10
14 35 11 119 -2 59 -7 112 -11 119 -8 13 -72 17 -80 4z"/>
<path d="M6774 6720 c-5 -5 -92 -12 -194 -16 -166 -5 -229 -9 -238 -13 -1 0 4
-13 11 -28 7 -16 12 -43 10 -62 -2 -19 2 -40 8 -48 7 -7 9 -16 5 -20 -3 -3 0
-13 8 -22 14 -15 16 -20 16 -40 0 -5 14 -14 30 -20 17 -5 30 -17 30 -26 0 -9
4 -14 9 -10 5 3 12 1 16 -5 4 -6 11 -8 16 -5 5 4 9 1 9 -4 0 -6 9 -11 19 -11
11 0 21 -5 23 -11 2 -6 19 1 41 15 20 14 37 21 37 16 0 -8 69 11 110 30 8 4
19 21 24 38 6 19 17 32 30 34 29 4 31 84 2 104 -11 8 -15 14 -9 14 12 0 12 24
0 36 -3 3 -3 19 0 35 6 31 3 35 -13 19z"/>
<path d="M3576 6713 c-9 -10 -7 -73 3 -73 18 0 29 64 12 74 -4 3 -11 3 -15 -1z"/>
<path d="M9807 6540 c-7 -28 32 -39 50 -14 12 16 11 19 -4 26 -30 11 -40 9
-46 -12z"/>
<path d="M9530 6520 c-8 -5 -28 -10 -43 -10 -17 0 -47 -15 -75 -36 -26 -19
-48 -31 -50 -25 -5 14 -22 14 -22 1 0 -6 8 -14 18 -17 9 -4 28 -18 41 -32 20
-21 33 -25 89 -26 71 -2 122 12 122 33 0 7 6 15 14 18 8 3 17 16 20 30 4 13
11 24 16 24 6 0 10 8 10 17 0 9 -3 14 -6 10 -4 -3 -13 0 -21 8 -16 17 -90 20
-113 5z"/>
<path d="M2167 6447 c-34 -28 -36 -51 -4 -41 12 3 24 11 25 15 2 5 9 6 15 2 7
-3 9 -3 5 2 -4 4 -3 16 3 26 14 27 -11 25 -44 -4z"/>
<path d="M9272 6438 c3 -7 13 -15 24 -17 16 -3 17 -1 5 13 -16 19 -34 21 -29
4z"/>
<path d="M7321 6344 c-12 -14 -12 -18 0 -26 11 -8 10 -9 -3 -4 -10 3 -18 1
-18 -4 0 -5 -11 -12 -25 -16 -14 -3 -25 -10 -25 -15 0 -6 -18 -28 -40 -50 -43
-43 -47 -54 -27 -62 6 -3 -1 -5 -18 -4 -16 0 -37 7 -46 14 -14 12 -17 11 -21
-5 -9 -32 -158 -39 -196 -9 -9 7 -12 7 -10 -2 4 -18 -30 -22 -61 -7 -14 7 -33
11 -42 9 -9 -2 -21 3 -28 11 -10 12 -16 13 -32 3 -23 -14 -38 2 -39 43 l-1 25
-14 -25 -14 -25 -1 28 c0 15 -3 27 -6 27 -13 0 -54 -52 -49 -61 10 -14 -15
-11 -31 5 -12 13 -12 15 4 19 12 3 11 5 -6 6 -13 0 -22 7 -21 14 4 31 -1 40
-16 27 -8 -6 -18 -9 -24 -6 -13 8 -21 -18 -14 -44 5 -20 4 -21 -16 -10 -25 13
-44 4 -22 -9 7 -5 10 -14 7 -20 -10 -16 -46 5 -47 27 0 12 -3 10 -10 -6 -5
-13 -18 -26 -29 -29 -11 -3 -20 -11 -20 -18 0 -15 -44 -29 -77 -26 -15 2 -23
-3 -23 -13 0 -39 -102 -76 -134 -48 -11 10 -16 11 -12 5 4 -8 1 -13 -8 -13
-24 0 -46 11 -46 24 0 7 -11 18 -24 24 -19 9 -27 8 -36 -4 -19 -22 -29 -17
-46 26 -9 22 -20 40 -25 40 -5 0 -18 14 -28 31 -11 18 -22 26 -25 20 -4 -6 -5
-15 -2 -20 3 -5 -1 -12 -10 -15 -22 -8 -21 -9 -27 15 -8 31 -26 14 -33 -33 -5
-31 -9 -37 -16 -24 -5 9 -7 20 -4 24 3 5 8 24 11 43 l6 34 -21 -21 c-33 -32
-31 -119 3 -169 15 -22 27 -46 27 -54 0 -25 126 -205 163 -234 19 -15 61 -54
93 -87 36 -38 63 -59 72 -55 13 5 13 3 1 -12 -12 -15 -12 -16 4 -10 11 4 17 2
17 -8 0 -13 3 -13 20 -3 16 10 22 10 28 1 22 -35 121 -84 222 -109 36 -8 71
-21 79 -27 8 -7 17 -11 20 -11 3 1 12 -1 18 -3 7 -3 32 -2 55 1 24 3 50 6 58
7 8 1 21 7 29 13 7 6 28 11 45 12 57 1 66 4 66 19 0 19 35 37 64 33 12 -1 34
5 49 15 15 9 34 14 44 10 10 -3 15 -3 11 2 -13 14 25 34 65 35 25 0 37 5 37
14 0 8 19 24 43 35 29 14 51 35 66 61 12 22 29 40 36 40 8 0 24 21 36 48 12
26 23 41 26 34 7 -18 33 5 33 29 0 11 4 19 9 19 16 0 69 62 81 94 17 45 42 99
56 116 6 8 20 43 31 77 19 60 19 62 1 52 -10 -5 -23 -7 -28 -4 -14 9 -12 33 2
37 9 3 9 6 0 12 -7 4 -12 2 -12 -3 0 -6 -4 -11 -10 -11 -5 0 -10 14 -10 30 0
17 -5 30 -11 30 -6 0 -9 -9 -6 -20 3 -11 3 -20 0 -20 -11 0 -42 46 -43 63 0 9
-4 17 -10 17 -5 0 -10 7 -10 15 0 19 -11 19 -29 -1z m-974 -256 c-3 -8 -6 -5
-6 6 -1 11 2 17 5 13 3 -3 4 -12 1 -19z m328 -618 c-3 -5 -13 -10 -21 -10 -8
0 -14 5 -14 10 0 6 9 10 21 10 11 0 17 -4 14 -10z"/>
<path d="M5466 6308 c-14 -16 -25 -19 -50 -13 -17 4 -59 7 -94 7 -50 1 -66 -3
-77 -18 -8 -10 -12 -26 -8 -34 10 -23 23 -289 17 -342 -4 -30 -2 -48 4 -48 17
0 20 10 26 103 6 97 14 137 26 137 31 0 75 -244 50 -275 -7 -8 -10 -22 -6 -30
6 -17 -19 -21 -29 -5 -3 6 -13 10 -21 10 -26 0 4 -39 44 -58 20 -9 45 -23 55
-31 15 -13 17 -12 18 5 4 100 12 145 34 191 24 47 26 64 30 237 3 102 4 186 3
185 -2 0 -11 -10 -22 -21z"/>
<path d="M7675 6270 c3 -11 2 -20 -3 -20 -14 0 -21 -54 -27 -203 -4 -120 -3
-130 21 -185 35 -79 77 -254 78 -329 1 -37 5 -61 11 -59 6 2 9 9 7 16 -1 7 1
17 6 24 5 6 20 45 32 86 12 41 29 94 37 117 13 35 13 46 3 58 -14 16 -49 11
-62 -9 -15 -21 -7 99 8 139 9 22 17 50 17 62 3 31 52 77 65 60 15 -19 70 -139
98 -214 34 -90 54 -133 75 -161 19 -25 31 -17 24 16 -2 12 0 24 6 27 5 4 9 14
9 23 -1 15 -2 16 -13 1 -16 -21 -36 -13 -30 11 3 11 -5 41 -17 67 -44 93 -61
128 -74 153 -8 14 -16 49 -19 78 -6 50 -5 52 19 52 19 0 25 5 22 18 -2 11 -19
21 -50 28 -41 11 -176 102 -186 126 -2 4 -10 8 -18 8 -8 0 -11 6 -8 15 4 10 0
15 -16 15 -17 0 -20 -4 -15 -20z"/>
<path d="M647 6102 c-23 -14 -27 -23 -25 -52 6 -71 88 -69 88 2 0 31 -16 68
-28 68 -4 0 -20 -8 -35 -18z"/>
<path d="M2140 5680 c-110 -61 -143 -105 -116 -159 7 -14 14 -51 15 -81 2 -30
6 -75 11 -100 5 -24 6 -48 4 -52 -3 -5 0 -8 6 -8 6 0 8 -5 5 -10 -18 -29 90
-15 122 16 6 6 14 40 17 75 4 35 8 87 11 114 3 28 17 85 32 128 23 67 25 80
13 87 -24 16 -83 10 -120 -10z"/>
<path d="M12827 5676 c-5 -12 0 -16 18 -16 13 0 27 5 30 10 3 6 2 10 -4 10 -5
0 -16 3 -24 6 -8 3 -17 -2 -20 -10z"/>
<path d="M10342 5490 c-12 -5 -25 -17 -29 -25 -3 -9 -1 -70 5 -137 8 -93 15
-127 30 -147 26 -35 47 -37 67 -7 15 23 16 43 10 157 -6 109 -11 135 -26 150
-21 21 -24 22 -57 9z"/>
<path d="M10990 5475 c-12 -14 -16 -55 -18 -184 -1 -91 -3 -188 -4 -216 -3
-68 9 -123 30 -134 9 -5 36 -12 59 -16 34 -5 45 -3 62 14 18 18 21 33 21 104
0 81 1 83 38 129 38 45 39 49 45 148 4 64 2 110 -4 122 -14 26 -50 38 -139 45
-65 5 -77 3 -90 -12z"/>
<path d="M11532 5425 c-7 -14 -12 -59 -12 -99 0 -100 15 -119 94 -117 33 0 75
9 101 21 61 28 234 45 311 31 73 -14 70 -14 88 5 10 9 16 33 16 60 0 65 -21
81 -117 89 -43 3 -116 10 -163 15 -47 5 -135 12 -196 15 l-110 6 -12 -26z"/>
<path d="M5654 5366 c-10 -8 -17 -17 -14 -19 3 -3 16 3 30 13 29 22 14 27 -16
6z"/>
<path d="M7404 5293 c-11 -35 -21 -48 -44 -53 -33 -8 -35 -24 -6 -39 20 -11
23 -18 16 -41 -5 -18 -4 -32 3 -40 9 -9 5 -10 -18 -4 -39 9 -38 6 -39 66 -1
30 -7 53 -14 56 -7 2 -12 -3 -12 -12 0 -9 -11 -26 -25 -38 -14 -12 -25 -32
-25 -44 0 -13 -7 -29 -15 -36 -9 -7 -22 -18 -29 -25 -8 -7 -16 -10 -19 -7 -3
3 -8 -4 -12 -15 -3 -12 -11 -21 -16 -21 -6 0 -7 -4 -4 -10 3 -5 -3 -10 -14
-10 -11 0 -28 -8 -38 -19 -10 -10 -28 -22 -40 -25 -13 -4 -23 -13 -23 -19 0
-7 -16 -22 -35 -35 -19 -12 -35 -29 -35 -37 0 -7 -12 -20 -27 -28 -16 -7 -27
-19 -25 -25 1 -7 -16 -20 -38 -29 -22 -10 -40 -21 -40 -25 0 -5 -9 -8 -20 -8
-11 0 -20 -5 -20 -11 0 -6 -7 -9 -15 -5 -9 3 -15 0 -15 -9 0 -8 -8 -15 -17
-15 -10 0 -29 -9 -43 -20 -14 -11 -30 -20 -36 -20 -7 0 -14 -7 -18 -15 -3 -9
-18 -15 -35 -15 -16 0 -33 -5 -36 -10 -10 -16 -74 -1 -125 29 -25 14 -56 31
-70 37 -14 6 -45 28 -70 48 -25 21 -53 44 -63 52 -9 8 -22 14 -27 14 -6 0 -10
7 -10 16 0 9 -8 14 -17 13 -31 -3 -36 1 -23 16 11 13 10 14 -2 10 -9 -4 -22 5
-34 20 -10 14 -27 25 -36 25 -10 0 -18 3 -19 8 0 4 -2 18 -3 31 -2 13 -10 29
-19 36 -10 7 -17 19 -17 28 0 9 -12 24 -27 34 -46 28 -113 108 -113 133 0 6
-4 10 -9 10 -5 0 -22 19 -38 42 -15 23 -36 42 -45 44 -18 2 -17 -4 13 -63 10
-20 19 -46 19 -56 0 -10 10 -33 22 -50 13 -18 21 -32 19 -32 -7 0 11 -120 19
-130 4 -5 11 -26 14 -46 3 -20 10 -48 15 -62 5 -14 7 -28 3 -33 -4 -4 -1 -4 6
0 8 5 12 1 12 -11 1 -17 1 -17 11 0 6 10 8 30 4 45 -4 15 -9 36 -10 47 -2 11
-12 53 -23 92 -12 40 -17 75 -12 78 4 3 30 -21 56 -52 27 -32 160 -168 295
-303 135 -135 251 -255 257 -267 11 -20 7 -24 -52 -57 -57 -32 -99 -66 -82
-66 10 0 116 60 148 83 15 11 32 34 39 51 7 17 19 35 26 39 7 4 13 15 13 22 0
8 6 15 13 15 7 0 31 18 52 41 22 22 83 75 135 117 185 150 293 251 397 372 2
2 8 -2 13 -10 7 -10 10 -11 10 -2 0 23 20 12 26 -15 4 -16 16 -34 26 -41 15
-11 18 -24 16 -65 -2 -43 1 -55 18 -69 19 -15 22 -31 27 -155 3 -76 13 -165
21 -198 18 -71 23 -495 6 -495 -5 0 -20 -10 -32 -22 -19 -19 -22 -20 -33 -5
-7 10 -10 29 -8 45 4 25 3 26 -11 8 -14 -18 -16 -18 -44 5 -36 29 -41 57 -43
204 0 61 -4 135 -8 165 l-7 55 -18 -55 c-10 -30 -20 -93 -23 -140 -3 -47 -10
-91 -16 -98 -7 -9 -5 -16 7 -25 22 -16 11 -47 -16 -47 -16 0 -18 -3 -9 -13 7
-9 8 -24 1 -46 -7 -25 -6 -37 4 -47 10 -10 12 -23 6 -46 -13 -50 -34 -104 -47
-120 -7 -7 -23 -37 -36 -65 -13 -28 -38 -68 -55 -88 -18 -19 -32 -42 -32 -49
0 -7 -12 -22 -26 -32 -14 -10 -42 -43 -62 -73 -38 -56 -236 -263 -262 -273 -8
-3 -41 -26 -72 -52 -31 -25 -61 -46 -67 -46 -6 0 -32 -22 -57 -49 l-46 -49
-29 29 c-16 16 -32 29 -38 29 -5 0 -16 16 -25 35 -9 19 -35 49 -56 67 -22 17
-40 35 -40 40 0 5 -16 22 -34 39 -51 44 -122 178 -143 268 -5 20 -3 23 11 18
25 -10 32 20 10 44 -15 17 -16 23 -6 40 10 16 9 25 -3 49 -10 18 -11 30 -5 30
6 0 10 6 9 13 -1 6 5 29 14 49 10 21 17 44 17 52 0 8 5 18 10 21 6 3 10 15 10
26 0 10 -4 19 -10 19 -5 0 -10 -4 -10 -10 0 -5 -7 -10 -15 -10 -9 0 -15 9 -15
24 0 14 -5 48 -12 76 -11 46 -10 53 5 62 23 12 21 25 -3 33 -16 5 -18 10 -10
25 7 13 4 24 -11 45 -22 27 -23 43 -19 228 1 62 3 66 20 57 26 -14 26 -14 40
20 15 36 -1 64 -31 55 -18 -6 -24 5 -32 63 -7 48 -22 40 -23 -11 -1 -87 -14
-249 -21 -260 -4 -6 -12 -53 -20 -104 -18 -131 -21 -137 -91 -128 -78 10 -84
20 -76 130 3 50 8 130 10 180 2 49 9 104 14 121 6 18 8 44 4 58 -3 15 -1 32 6
41 6 8 9 23 5 35 -4 13 0 31 11 48 20 29 25 103 10 139 -6 15 -5 27 4 38 7 8
10 25 6 38 -3 12 1 35 9 51 8 16 15 40 16 55 0 14 4 35 8 45 10 27 2 66 -15
66 -8 0 -14 5 -14 10 0 6 -4 10 -10 10 -5 0 -10 -16 -10 -35 0 -33 -4 -37 -44
-54 -32 -14 -45 -26 -48 -45 -5 -23 -3 -25 21 -19 24 6 25 5 12 -11 -8 -9 -20
-15 -28 -12 -10 4 -13 -5 -12 -37 1 -23 3 -35 6 -26 2 10 15 15 38 15 30 0 42
-16 12 -16 -7 0 -23 -9 -36 -19 -22 -17 -25 -33 -47 -232 -13 -118 -29 -284
-34 -369 -11 -168 -19 -255 -26 -310 -2 -19 -6 -80 -8 -135 -2 -55 -6 -107
-10 -116 -4 -8 -2 -28 4 -43 7 -20 7 -32 -1 -42 -6 -7 -8 -23 -4 -35 4 -12 9
-41 10 -63 2 -23 8 -70 14 -106 6 -36 14 -92 17 -125 3 -33 12 -84 20 -113 13
-44 15 -93 10 -283 -6 -240 5 -400 39 -554 9 -38 20 -103 26 -144 5 -41 12
-78 14 -82 3 -4 9 -37 14 -75 10 -68 -7 -321 -28 -424 -22 -103 -24 -152 -27
-525 -1 -214 -5 -416 -8 -447 -6 -62 -27 -121 -46 -133 -8 -5 -6 -12 6 -26 17
-18 17 -23 1 -67 -36 -105 -77 -315 -77 -395 l0 -57 728 0 729 0 11 83 c22
159 24 289 7 489 -13 159 -15 222 -6 337 6 77 15 148 20 158 6 10 15 45 20 78
6 33 22 107 36 165 47 191 58 295 57 550 -1 228 11 384 38 490 6 25 15 63 20
85 5 22 16 65 25 95 18 59 31 115 44 197 5 28 12 56 15 61 3 4 8 53 12 108 4
54 8 110 10 124 1 14 3 46 3 72 1 27 7 53 16 62 8 8 15 25 15 38 0 25 18 85
48 163 53 137 63 166 76 216 7 30 14 61 14 69 0 8 5 29 10 47 6 18 6 33 2 35
-5 2 -3 23 3 47 9 34 9 45 0 48 -8 3 -9 12 -1 34 6 16 8 42 5 56 -3 14 0 39 5
55 6 18 7 33 1 41 -10 13 -9 107 2 148 4 15 2 30 -4 33 -6 4 -5 18 4 39 8 20
10 39 5 47 -5 8 -3 22 6 36 9 12 12 32 9 46 -3 13 -1 36 4 51 8 20 7 33 -1 47
-9 14 -9 25 0 45 16 36 15 43 -8 50 -24 8 -26 37 -4 56 14 11 18 11 29 -4 28
-39 26 -12 -7 73 -14 34 -41 89 -78 154 -39 71 -57 115 -69 177 -4 19 -11 41
-15 47 -4 6 -11 37 -16 69 -12 69 -5 75 65 67 l50 -5 -40 35 c-30 26 -39 42
-37 60 4 29 -16 45 -24 19z m-1656 -443 c10 0 4 -8 -17 -21 -38 -23 -42 -22
-34 10 4 14 11 20 20 17 8 -3 22 -6 31 -6z m-29 -89 c11 -7 10 -11 -7 -20 -28
-15 -31 -14 -25 9 6 22 11 24 32 11z m1768 -17 c-3 -3 -12 -4 -19 -1 -8 3 -5
6 6 6 11 1 17 -2 13 -5z m52 -80 c12 -28 6 -48 -8 -25 -5 7 -13 11 -19 7 -16
-10 -25 13 -12 29 17 21 25 19 39 -11z m-1829 -4 c-24 -15 -37 -11 -16 5 11 8
22 12 25 9 3 -3 -1 -9 -9 -14z"/>
<path d="M5353 5263 c-44 -56 -49 -67 -27 -53 23 15 77 90 65 90 -5 0 -22 -17
-38 -37z"/>
<path d="M5700 5230 c0 -10 8 -23 18 -29 15 -9 13 -13 -18 -39 -19 -17 -32
-33 -28 -37 8 -9 98 33 98 46 0 5 -11 21 -25 35 -14 14 -25 29 -25 34 0 6 -4
10 -10 10 -5 0 -10 -9 -10 -20z"/>
<path d="M9640 5205 c-33 -8 -78 -11 -112 -8 -107 11 -139 -16 -110 -92 9 -22
20 -43 26 -47 6 -4 7 -8 2 -8 -5 0 -3 -7 4 -15 11 -13 8 -21 -17 -48 -26 -27
-30 -38 -25 -67 6 -41 22 -56 77 -71 48 -13 155 -68 155 -80 0 -4 8 -8 18 -8
45 -2 59 -5 84 -22 14 -11 37 -19 50 -19 23 0 24 1 17 73 -4 39 -7 148 -8 241
-1 93 -4 173 -7 177 -8 13 -91 9 -154 -6z"/>
<path d="M2051 5139 c-4 -72 74 -120 129 -79 l25 19 -22 20 c-12 12 -25 21
-29 21 -4 0 -19 13 -34 30 -37 41 -66 37 -69 -11z"/>
<path d="M3235 5150 c-8 -12 3 -88 15 -110 8 -15 44 -20 123 -20 22 0 46 -4
56 -9 25 -14 49 10 57 56 8 50 -8 68 -76 82 -65 14 -167 14 -175 1z"/>
<path d="M3837 5085 c-20 -19 -22 -48 -5 -74 11 -18 14 -18 40 -5 15 8 28 11
28 7 0 -4 5 -2 12 5 15 15 50 16 64 2 8 -8 18 -5 34 8 19 16 21 22 11 40 -10
18 -21 22 -60 22 -27 0 -62 3 -78 6 -21 4 -35 1 -46 -11z"/>
<path d="M8550 5094 c0 -5 14 -44 30 -87 17 -42 39 -119 50 -170 98 -466 100
-481 98 -917 0 -184 2 -366 5 -405 20 -224 15 -690 -7 -825 -3 -14 -10 -65
-16 -115 -13 -105 -17 -130 -36 -249 -7 -49 -12 -92 -9 -94 2 -3 14 17 26 44
20 47 26 65 51 159 15 58 22 991 9 1160 -7 94 -7 143 0 162 12 31 16 345 6
438 -4 33 -11 119 -17 190 -18 222 -17 216 -55 377 -20 86 -69 238 -86 269
-21 37 -49 73 -49 63z"/>
<path d="M3253 4982 c-7 -4 -16 -20 -22 -35 -12 -32 -11 -176 1 -183 5 -3 25
2 44 11 20 9 50 18 67 20 42 4 139 58 148 82 4 11 1 32 -7 50 -13 25 -21 30
-60 32 -25 1 -56 6 -70 11 -15 6 -24 6 -24 0 0 -5 -15 -3 -33 5 -18 7 -38 10
-44 7z"/>
<path d="M2090 4933 c-7 -15 -12 -38 -11 -50 1 -12 -3 -31 -9 -43 -6 -12 -13
-69 -15 -126 -3 -97 -2 -107 19 -131 28 -33 59 -27 107 19 33 32 49 68 31 68
-6 0 -12 7 -15 14 -4 9 -1 13 6 10 7 -2 13 7 14 23 4 61 12 91 32 128 26 50
26 57 -1 82 -27 23 -63 39 -52 22 7 -12 -46 -8 -77 5 -11 5 -19 -1 -29 -21z"/>
<path d="M7200 4905 c0 -8 2 -15 4 -15 2 0 6 7 10 15 3 8 1 15 -4 15 -6 0 -10
-7 -10 -15z"/>
<path d="M7192 4848 c-12 -16 -13 -138 -1 -138 5 0 9 8 9 18 1 9 2 43 3 75 1
31 1 57 1 57 -1 0 -6 -6 -12 -12z"/>
<path d="M262 4841 c-16 -10 -33 -79 -22 -86 5 -3 14 -29 21 -59 11 -50 10
-55 -12 -87 -13 -19 -28 -37 -32 -40 -4 -3 1 -27 13 -53 11 -26 20 -53 20 -60
0 -7 11 -29 24 -49 13 -19 22 -37 20 -40 -2 -2 3 -4 11 -4 8 0 15 4 15 10 0 5
9 16 20 25 14 11 24 39 32 81 9 55 8 71 -6 111 -9 26 -16 65 -15 86 3 41 -24
127 -49 157 -17 19 -21 20 -40 8z"/>
<path d="M5957 4783 c-10 -9 -9 -41 1 -47 4 -2 9 9 10 25 2 30 0 34 -11 22z"/>
<path d="M4165 4750 c-17 -33 -19 -44 -6 -36 10 6 33 66 26 66 -3 0 -11 -13
-20 -30z"/>
<path d="M98 4716 c-6 -31 39 -78 53 -55 11 18 1 50 -20 66 -23 18 -28 16 -33
-11z"/>
<path d="M7180 4691 c0 -6 5 -13 10 -16 6 -3 10 1 10 9 0 9 -4 16 -10 16 -5 0
-10 -4 -10 -9z"/>
<path d="M5950 4675 c0 -8 4 -15 10 -15 5 0 7 7 4 15 -4 8 -8 15 -10 15 -2 0
-4 -7 -4 -15z"/>
<path d="M4137 4673 c-4 -3 -7 -11 -7 -17 0 -6 5 -5 12 2 6 6 9 14 7 17 -3 3
-9 2 -12 -2z"/>
<path d="M481 4593 c-12 -42 2 -83 44 -126 20 -21 30 -25 35 -17 4 7 14 10 21
8 8 -3 22 6 32 19 10 13 25 23 33 23 8 0 14 5 14 11 0 5 5 7 10 4 6 -3 10 -2
10 3 0 6 10 8 22 4 12 -3 17 -7 11 -9 -10 -4 -10 -7 -1 -17 9 -9 26 -10 67 -4
68 11 68 11 69 48 0 23 -8 39 -31 59 l-31 29 -44 -19 c-48 -21 -99 -24 -146
-10 -106 32 -105 32 -115 -6z"/>
<path d="M4105 4574 c-9 -25 -15 -48 -12 -51 4 -3 9 6 13 21 3 14 9 26 13 26
4 0 8 11 9 25 3 36 -3 31 -23 -21z"/>
<path d="M7182 4603 c-11 -21 -4 -83 9 -83 5 0 9 23 9 50 0 53 -4 60 -18 33z"/>
<path d="M1695 4596 c-16 -8 -47 -22 -67 -30 -41 -16 -49 -40 -20 -54 23 -12
53 -7 110 21 37 17 47 27 47 47 0 31 -27 36 -70 16z"/>
<path d="M1 4395 c0 -112 3 -156 14 -175 8 -14 15 -34 15 -45 1 -40 15 -48 81
-46 71 1 89 13 90 57 1 113 -117 334 -179 334 -6 0 -13 6 -15 13 -3 6 -6 -55
-6 -138z"/>
<path d="M1393 4461 c-23 -11 -70 -47 -105 -81 -35 -33 -87 -72 -115 -87 -56
-27 -117 -87 -110 -106 3 -7 10 -11 16 -9 6 1 11 -2 11 -8 0 -5 6 -7 14 -4 7
3 16 -2 19 -10 4 -9 15 -16 26 -16 11 0 23 -5 27 -11 4 -7 20 -9 39 -6 l33 5
0 -49 c1 -57 6 -69 31 -69 19 0 51 30 51 47 0 12 46 23 96 23 19 0 34 3 34 8
0 4 30 27 68 52 37 25 69 48 70 53 2 4 13 7 23 7 11 0 28 4 37 9 9 5 51 12 92
16 l75 7 -30 -26 c-16 -14 -34 -26 -38 -26 -5 0 -6 -4 -3 -8 3 -5 -6 -15 -19
-22 -20 -11 -23 -18 -18 -44 7 -35 42 -85 61 -85 6 -1 12 -5 12 -11 0 -5 7
-10 15 -10 8 0 15 -4 15 -10 0 -5 11 -10 25 -10 14 0 25 -5 25 -10 0 -6 3 -9
8 -9 4 1 16 1 27 0 17 -1 18 -3 5 -11 -13 -8 -12 -10 3 -10 10 0 20 -7 23 -15
4 -8 15 -15 25 -15 10 0 19 -4 19 -9 0 -11 59 -33 71 -25 14 8 10 34 -6 40 -8
4 -12 10 -9 15 3 5 1 9 -4 9 -17 0 -24 52 -11 82 6 15 15 28 19 28 5 0 18 15
29 34 23 37 28 88 9 104 -19 14 -168 43 -235 45 -7 0 -13 8 -13 18 0 9 6 19
13 22 8 3 6 11 -10 27 -26 27 -72 22 -125 -14 -36 -24 -109 -38 -245 -45 -6
-1 -33 -19 -59 -42 -34 -29 -53 -39 -68 -35 -12 3 -24 6 -28 6 -9 0 11 47 32
77 9 12 36 32 60 45 37 20 45 30 58 73 7 27 20 58 28 69 8 11 14 26 14 33 0
19 -58 16 -107 -6z m-122 -328 c-8 -15 -10 -15 -11 -2 0 17 10 32 18 25 2 -3
-1 -13 -7 -23z"/>
<path d="M284 4337 c-12 -14 -8 -37 7 -37 5 0 9 10 9 23 0 18 2 19 10 7 8 -13
10 -12 10 3 0 20 -20 22 -36 4z"/>
<path d="M6483 4214 c-39 -20 -72 -70 -68 -104 2 -14 4 -35 4 -47 1 -12 12
-34 24 -49 20 -22 32 -27 69 -27 75 2 123 48 131 125 3 27 10 35 35 43 18 5
32 12 32 16 0 22 -219 10 -247 -12 -27 -23 -27 3 0 27 20 17 41 24 70 25 33 0
38 2 22 9 -28 12 -36 12 -72 -6z m67 -104 c0 -23 -22 -35 -45 -26 -13 4 -14
10 -5 26 14 27 50 27 50 0z"/>
<path d="M617 4179 c-39 -37 -42 -55 -12 -75 31 -20 68 -15 77 11 26 80 -10
116 -65 64z"/>
<path d="M989 4151 c10 -6 -9 -9 -53 -8 -53 1 -70 -3 -77 -16 -8 -13 0 -21 37
-43 75 -44 184 -46 184 -3 0 21 -24 52 -33 43 -3 -3 -8 4 -12 15 -4 15 -15 21
-33 21 -20 0 -23 -3 -13 -9z"/>
<path d="M6227 4096 c-17 -38 -25 -67 -21 -82 6 -23 8 -24 29 -10 15 10 26 11
33 4 19 -19 24 13 9 55 -9 23 -17 53 -19 67 -4 21 -8 16 -31 -34z"/>
<path d="M4061 4054 c-13 -29 -6 -47 9 -24 9 14 14 50 7 50 -2 0 -9 -12 -16
-26z"/>
<path d="M6290 3991 c0 -13 28 -33 41 -29 6 2 0 12 -15 21 -14 10 -26 13 -26
8z"/>
<path d="M0 3950 c0 -32 14 -40 24 -14 10 27 7 44 -9 44 -10 0 -15 -10 -15
-30z"/>
<path d="M6160 3950 c0 -5 7 -10 15 -10 8 0 15 5 15 10 0 6 -7 10 -15 10 -8 0
-15 -4 -15 -10z"/>
<path d="M120 3928 c-39 -20 -46 -29 -60 -75 -8 -28 -25 -60 -38 -71 -22 -20
-22 -21 -20 -273 3 -247 3 -253 20 -219 9 19 19 47 23 63 3 18 12 27 24 27 12
0 21 -10 26 -27 3 -16 22 -44 41 -63 24 -26 35 -48 40 -80 5 -41 2 -48 -26
-79 -28 -31 -31 -38 -27 -87 2 -30 6 -57 10 -60 3 -3 -4 -21 -15 -39 -10 -19
-18 -47 -16 -62 3 -28 4 -28 68 -27 63 1 154 9 195 17 29 6 65 -13 66 -35 4
-55 -8 -88 -32 -88 -18 0 -69 -30 -119 -70 -14 -11 -54 -34 -89 -51 -49 -23
-61 -33 -50 -40 8 -5 10 -9 4 -9 -5 0 -3 -5 5 -10 10 -7 18 -6 25 3 18 23 40
25 156 15 74 -7 120 -16 132 -26 9 -8 18 -11 18 -6 1 5 4 -4 8 -21 8 -34 3
-58 -10 -49 -6 3 -16 0 -24 -6 -18 -15 -74 -28 -150 -35 -96 -9 -119 -14 -166
-37 -24 -12 -50 -23 -58 -24 -16 -3 -15 -2 -53 -61 l-28 -43 0 -255 c0 -219 2
-255 15 -255 8 0 20 9 27 20 17 26 26 25 54 -7 13 -16 35 -28 51 -29 15 -1 31
-3 36 -3 4 -1 7 -8 7 -17 0 -9 8 -23 18 -31 9 -8 11 -11 4 -8 -11 6 -12 3 -3
-13 6 -12 12 -32 13 -45 2 -21 28 -36 28 -15 0 4 7 8 15 8 14 0 20 23 16 57
-1 7 8 17 20 23 15 8 19 9 15 1 -4 -6 -2 -11 3 -11 6 0 11 4 11 10 0 10 19 6
56 -12 12 -6 30 -28 40 -49 30 -62 63 -72 206 -65 66 4 125 9 129 12 18 11
177 5 225 -8 64 -18 90 -13 116 23 21 28 25 38 32 86 4 26 33 73 45 73 5 0 8
6 7 13 0 6 3 13 7 14 9 3 68 106 98 173 11 25 38 82 60 128 22 45 71 165 109
265 37 101 78 204 90 230 12 25 19 50 16 55 -3 6 1 12 9 16 8 3 12 12 9 21 -4
10 0 15 10 15 19 0 35 37 39 91 1 21 8 44 15 51 7 7 12 20 12 29 0 10 4 21 10
24 5 3 10 17 10 31 0 13 4 24 10 24 5 0 7 7 4 15 -4 8 -2 15 3 15 5 0 9 9 10
21 2 22 43 89 55 89 3 0 55 98 114 218 59 119 118 234 132 255 13 22 22 40 20
41 -2 1 -11 7 -20 14 -33 26 -141 62 -288 97 -36 9 -85 23 -110 31 -92 32
-237 66 -335 79 -55 8 -120 17 -145 20 -25 3 -52 9 -60 11 -15 6 -115 18 -275
34 -49 5 -110 11 -135 14 -25 3 -88 10 -140 16 -52 6 -120 15 -150 20 -106 17
-201 12 -250 -12z m767 -1520 c61 -27 59 -61 -4 -78 -27 -8 -64 -20 -83 -29
-55 -23 -60 -24 -142 -26 -55 -1 -83 -6 -95 -18 -25 -22 -53 -5 -53 33 0 34
21 58 58 66 15 3 52 12 83 20 30 8 74 14 96 14 22 0 54 7 69 15 35 18 36 18
71 3z m159 -23 c-23 -17 -36 -19 -36 -6 0 5 8 12 18 14 32 9 37 6 18 -8z m40
-600 c-11 -8 -31 -15 -45 -14 -24 0 -23 2 9 14 46 18 59 18 36 0z m-846 -45
c0 -5 -4 -10 -10 -10 -5 0 -10 5 -10 10 0 6 5 10 10 10 6 0 10 -4 10 -10z"/>
<path d="M6131 3901 c-24 -33 -14 -49 19 -31 21 11 27 44 11 55 -5 3 -19 -8
-30 -24z"/>
<path d="M2712 3385 c0 -16 2 -22 5 -12 2 9 2 23 0 30 -3 6 -5 -1 -5 -18z"/>
<path d="M2698 3310 c-4 -25 -9 -88 -11 -140 l-4 -95 13 55 c8 30 13 93 11
140 -2 74 -3 79 -9 40z"/>
<path d="M11075 3152 c-17 -12 -42 -78 -85 -227 -22 -77 -44 -153 -49 -170
-26 -84 -25 -81 -8 -66 9 7 21 27 26 45 5 17 22 62 36 101 15 38 33 104 41
145 9 41 22 92 30 113 7 20 11 37 8 37 -4 0 -1 7 6 15 13 16 11 19 -5 7z"/>
<path d="M12103 3114 c-51 -22 -66 -55 -71 -153 -5 -96 6 -121 53 -121 28 0
71 -33 61 -48 -3 -6 -26 -18 -50 -27 -25 -10 -47 -24 -51 -32 -8 -22 13 -43
42 -43 14 0 38 -8 55 -17 28 -17 30 -17 40 1 25 44 48 58 88 51 33 -5 39 -4
45 14 3 11 -1 36 -10 57 -10 26 -12 41 -5 48 21 21 3 194 -24 221 -20 21 -106
65 -124 64 -9 0 -31 -7 -49 -15z"/>
<path d="M11651 2977 c-6 -6 -11 -15 -11 -20 0 -4 -9 -28 -20 -53 -12 -25 -18
-53 -15 -64 8 -26 65 -50 118 -50 40 0 47 3 70 39 l25 38 -24 51 c-17 35 -32
53 -47 56 -64 13 -85 14 -96 3z"/>
<path d="M11685 2760 c-22 -10 -44 -20 -50 -20 -5 0 -20 -8 -33 -18 -19 -15
-23 -28 -24 -83 -3 -79 15 -101 90 -118 58 -12 151 3 195 32 25 16 27 22 27
90 0 81 -3 88 -45 110 -53 27 -115 30 -160 7z"/>
<path d="M10897 2598 c-10 -21 -17 -44 -17 -53 0 -8 -4 -23 -10 -33 -11 -19
-72 -195 -70 -200 1 -1 -10 -53 -25 -115 -19 -77 -36 -123 -55 -147 -15 -19
-38 -53 -52 -75 -35 -53 -115 -135 -133 -135 -10 0 -12 -6 -8 -17 6 -16 5 -17
-12 -3 -15 12 -19 13 -23 2 -2 -8 -17 -28 -32 -45 -37 -44 -61 -92 -54 -111 4
-11 2 -15 -7 -11 -10 4 -19 -14 -31 -62 -10 -38 -20 -75 -22 -83 -8 -30 -40
-106 -58 -138 -10 -18 -18 -41 -18 -51 0 -10 -7 -24 -15 -31 -8 -7 -12 -16
-10 -21 3 -4 1 -16 -4 -26 -5 -10 -24 -52 -42 -93 -50 -119 -132 -284 -143
-292 -7 -5 -13 -97 -17 -255 -4 -136 -12 -296 -19 -355 -10 -81 -10 -117 -1
-152 6 -25 11 -56 11 -70 0 -25 2 -26 69 -26 38 0 82 3 99 6 l30 6 -20 20
c-17 17 -18 22 -7 29 10 6 11 9 2 9 -7 0 -13 7 -13 15 0 8 -7 15 -15 15 -18 0
-19 5 -4 32 12 22 14 22 -36 2 -23 -9 -31 25 -11 44 16 16 18 16 30 0 19 -26
34 -22 41 12 7 34 8 34 36 19 16 -8 25 -7 39 6 12 11 26 14 44 9 16 -4 26 -2
26 5 0 6 9 11 20 11 11 0 20 5 20 10 0 6 -9 10 -19 10 -11 0 -23 9 -26 20 -8
25 -21 26 -35 0 -10 -19 -11 -19 -35 2 -16 14 -21 24 -14 29 8 5 8 8 -1 14 -6
4 -9 13 -6 20 3 8 0 15 -7 18 -11 3 -11 102 1 121 3 6 7 24 9 40 2 17 7 32 11
35 11 8 14 123 2 116 -5 -3 -12 -1 -15 5 -4 6 -3 10 2 9 24 -6 39 13 35 44 -3
18 -1 29 3 25 5 -5 16 10 26 32 10 22 25 43 34 46 8 3 15 11 15 18 0 6 8 18
18 27 9 8 37 39 62 68 25 29 57 65 71 81 54 56 109 180 80 180 -8 0 -7 6 1 19
11 18 13 18 25 3 11 -16 12 -16 13 1 0 10 5 15 10 12 6 -3 10 2 11 12 0 10 3
13 6 6 6 -16 39 -17 48 -3 4 6 -5 26 -19 45 -14 18 -26 41 -26 49 0 9 -4 16
-10 16 -5 0 -10 7 -10 15 0 20 -26 19 -34 -1 -3 -8 -2 -12 4 -9 6 3 10 -5 10
-18 0 -13 5 -39 11 -57 13 -37 3 -50 -37 -45 -16 1 -26 -4 -29 -16 -7 -20 -7
-20 -44 -24 -13 -1 -26 -7 -30 -12 -9 -14 -72 -40 -115 -48 -30 -5 -36 -9 -25
-17 12 -8 12 -9 0 -6 -21 6 -33 55 -15 62 8 3 13 19 12 41 -1 21 4 40 12 45 7
4 15 31 18 59 2 28 8 51 13 51 5 0 8 3 7 8 -3 8 42 105 52 112 4 3 10 15 14
27 4 13 15 30 24 39 9 10 18 29 20 43 2 14 10 33 18 42 8 8 14 19 14 24 0 11
82 131 129 190 23 28 48 66 57 85 9 19 26 49 38 65 13 17 26 53 30 83 4 29 17
78 30 110 49 119 66 165 66 182 0 9 3 19 6 23 4 3 17 37 29 74 20 57 21 70 10
83 -7 8 -15 24 -17 35 -4 16 -8 13 -21 -17z m-494 -1455 c-7 -2 -19 -2 -25 0
-7 3 -2 5 12 5 14 0 19 -2 13 -5z"/>
<path d="M10697 2490 c-18 -22 -24 -75 -7 -65 6 3 10 16 10 29 0 12 5 27 12
34 6 6 9 14 7 17 -3 2 -13 -5 -22 -15z"/>
<path d="M10086 2484 c-3 -9 -2 -33 4 -55 6 -21 10 -79 8 -128 -2 -91 4 -113
23 -94 14 14 15 189 0 240 -13 47 -26 61 -35 37z"/>
<path d="M12138 2439 c-11 -6 -18 -22 -18 -39 0 -18 -8 -34 -21 -44 l-21 -14
26 -18 c33 -21 43 -38 51 -92 5 -38 3 -46 -24 -73 -35 -35 -38 -44 -15 -53 16
-6 50 8 69 28 45 51 48 56 35 71 -14 17 -16 77 -5 145 13 81 -22 121 -77 89z"/>
<path d="M11709 2336 c-26 -16 -29 -22 -16 -24 9 -2 17 -10 17 -19 0 -11 7
-13 30 -8 39 8 38 2 -2 -24 -23 -14 -27 -21 -15 -21 9 0 17 -4 17 -10 0 -5 9
-10 21 -10 13 0 18 -4 13 -12 -5 -7 -2 -9 9 -5 9 3 27 -3 41 -14 36 -28 58
-21 62 20 3 19 9 39 14 46 7 9 -5 15 -45 25 -47 11 -55 17 -60 41 -4 16 -10
29 -13 30 -4 0 -14 2 -23 4 -9 1 -31 -7 -50 -19z"/>
<path d="M11987 2318 l-25 -22 24 -19 c14 -10 31 -16 39 -13 21 8 31 56 14 67
-20 13 -25 11 -52 -13z"/>
<path d="M10622 2278 c-7 -7 -12 -23 -12 -37 0 -30 15 -17 24 22 7 30 5 32
-12 15z"/>
<path d="M11884 2142 c-6 -4 -10 -17 -9 -29 1 -12 -2 -20 -6 -17 -12 7 -21
-15 -14 -36 9 -28 29 -25 67 10 32 28 32 29 9 30 -16 0 -21 4 -17 15 3 9 0 15
-10 15 -8 0 -12 5 -9 10 7 12 4 12 -11 2z"/>
<path d="M10144 2095 c4 -16 10 -42 13 -57 3 -16 9 -28 13 -28 10 0 -9 92 -22
105 -7 7 -8 0 -4 -20z"/>
<path d="M1757 2020 c-3 -11 -1 -20 4 -20 5 0 9 9 9 20 0 11 -2 20 -4 20 -2 0
-6 -9 -9 -20z"/>
<path d="M2521 2018 c-1 -10 -5 -18 -10 -18 -17 0 -22 -33 -7 -48 29 -29 47
14 26 63 -7 17 -9 17 -9 3z"/>
<path d="M2575 1987 c-18 -35 -18 -39 -2 -54 15 -15 17 -15 22 -1 4 9 5 33 3
54 l-3 39 -20 -38z"/>
<path d="M10116 1928 c3 -46 9 -138 15 -206 5 -68 9 -130 9 -138 0 -7 4 -14
10 -14 15 0 8 392 -7 398 -7 2 -13 10 -13 17 0 8 -4 17 -10 20 -6 4 -7 -25 -4
-77z"/>
<path d="M1750 1925 c0 -19 2 -35 4 -35 2 0 6 16 8 35 2 19 0 35 -4 35 -4 0
-8 -16 -8 -35z"/>
<path d="M10442 1931 c-11 -6 -10 -10 0 -19 11 -8 14 -7 15 9 2 22 2 21 -15
10z"/>
<path d="M2581 1863 c1 -16 5 -41 9 -58 6 -25 8 -20 9 28 0 32 -3 57 -9 57 -5
0 -9 -12 -9 -27z"/>
<path d="M10505 1870 c-3 -5 -1 -10 4 -10 6 0 11 5 11 10 0 6 -2 10 -4 10 -3
0 -8 -4 -11 -10z"/>
<path d="M67 1659 c-10 -6 -27 -9 -38 -6 -10 3 -17 1 -13 -4 3 -5 0 -9 -6 -9
-7 0 -9 -123 -8 -407 l3 -408 90 -1 c132 -2 148 2 200 53 43 43 48 45 89 41
47 -6 86 -33 86 -60 0 -9 4 -19 8 -22 5 -3 10 -27 11 -54 1 -40 -2 -49 -16
-49 -10 0 -24 6 -31 14 -7 7 -29 13 -47 13 -19 0 -37 5 -40 10 -10 16 -43 12
-134 -16 -86 -26 -117 -43 -119 -67 -2 -28 -9 -52 -14 -47 -3 3 -12 -1 -21 -8
-13 -11 -18 -10 -30 8 -8 12 -13 30 -10 40 3 10 -2 29 -11 42 -15 21 -16 16
-16 -85 0 -101 8 -127 27 -93 4 8 17 16 28 18 11 2 19 10 18 16 -2 7 8 12 21
12 34 0 57 10 50 22 -4 6 0 14 7 19 26 16 57 9 89 -21 18 -16 41 -30 51 -30
10 0 33 -9 51 -20 18 -11 39 -20 46 -20 8 0 26 -12 41 -27 46 -48 68 -62 80
-52 6 5 9 6 6 2 -9 -12 57 -34 70 -23 9 7 16 6 25 -5 7 -9 18 -14 24 -12 6 2
16 -3 22 -11 25 -34 90 54 79 107 -6 31 -3 29 -65 37 -62 8 -89 26 -70 49 6 8
9 18 6 24 -4 5 10 15 31 22 31 10 41 9 70 -7 25 -13 33 -23 29 -37 -3 -14 -1
-16 8 -8 7 6 16 8 19 4 4 -3 9 2 12 11 3 9 8 24 12 34 3 9 7 24 9 32 2 8 6 31
10 50 12 59 13 64 17 100 2 20 9 45 16 58 6 12 9 22 6 22 -9 0 28 63 45 77 8
7 11 13 6 13 -5 0 -4 6 1 13 6 6 13 29 17 49 4 20 16 58 27 83 20 44 21 76 4
131 -7 24 -43 36 -115 40 -70 3 -109 21 -125 59 -8 20 -27 41 -47 51 -18 9
-35 20 -38 23 -3 4 -22 17 -43 29 -41 24 -87 28 -117 12 -18 -9 -36 -13 -141
-26 -45 -6 -95 9 -85 24 2 4 -6 7 -19 7 -13 0 -21 -3 -18 -8 5 -9 -17 -31 -35
-35 -21 -4 -55 25 -59 50 -3 20 -28 52 -45 56 -5 1 -8 5 -7 8 0 4 -4 10 -10
13 -16 10 2 29 33 35 40 7 59 25 45 42 -14 17 -27 17 -52 3z"/>
<path d="M10101 1314 c0 -11 3 -14 6 -6 3 7 2 16 -1 19 -3 4 -6 -2 -5 -13z"/>
<path d="M2529 1223 c0 -5 -3 -21 -6 -38 -11 -58 -5 -178 11 -203 3 -6 7 -39
8 -74 1 -39 7 -69 16 -78 10 -10 11 -15 3 -18 -6 -2 -11 -8 -11 -13 0 -6 4 -8
9 -5 5 4 7 -11 4 -34 -5 -34 -3 -40 13 -40 17 0 17 -1 0 -13 -15 -11 -15 -17
-5 -42 7 -17 14 -49 16 -72 3 -37 1 -43 -15 -43 -26 0 -34 -11 -21 -27 6 -7 7
-13 2 -13 -13 0 -34 -70 -25 -84 11 -19 10 -78 -2 -66 -18 18 -46 12 -46 -12
0 -20 -1 -20 -12 -5 -11 15 -13 12 -12 -21 0 -34 -2 -38 -20 -35 -17 4 -27 -6
-49 -49 -15 -29 -27 -56 -27 -59 0 -15 66 -16 87 -2 24 16 43 10 43 -13 0 -8
5 -14 10 -14 6 0 10 -19 11 -42 1 -40 1 -41 9 -15 11 35 28 57 47 57 22 0 26
-26 10 -62 -8 -18 -17 -41 -21 -50 -3 -10 -11 -18 -18 -18 -9 0 -8 3 2 10 13
8 12 10 -2 10 -10 0 -18 -5 -18 -10 0 -14 44 -30 82 -30 l30 0 -7 87 c-11 149
-8 614 4 653 8 25 8 58 1 115 -5 44 -13 133 -16 198 -4 81 -10 122 -20 132 -8
7 -14 20 -14 27 0 10 -3 9 -10 -2 -8 -12 -10 -12 -16 3 -6 17 -23 24 -25 10z"/>
<path d="M1755 740 c-18 -34 -15 -93 9 -185 9 -32 16 -66 17 -75 0 -8 9 -33
19 -55 l19 -40 -1 120 c-1 66 -5 125 -8 130 -4 6 -11 36 -14 67 -9 69 -20 79
-41 38z"/>
<path d="M8522 466 c-25 -37 -28 -52 -9 -59 13 -4 47 44 47 68 0 27 -16 23
-38 -9z"/>
<path d="M92 421 c-9 -6 -7 -12 8 -26 12 -11 24 -15 29 -9 12 13 -21 45 -37
35z"/>
<path d="M8496 381 c-4 -7 -5 -15 -2 -18 9 -9 19 4 14 18 -4 11 -6 11 -12 0z"/>
<path d="M576 353 c-3 -4 -45 -7 -93 -7 -57 -1 -88 -5 -90 -13 -3 -7 -10 -10
-17 -7 -8 3 -21 -2 -30 -11 -9 -9 -16 -14 -16 -11 0 3 -19 -1 -41 -9 -23 -8
-57 -15 -76 -15 -40 0 -88 -22 -97 -45 -3 -9 -6 -32 -6 -51 0 -28 6 -36 32
-50 18 -10 58 -17 93 -18 58 -1 60 -2 60 -28 1 -15 10 -40 21 -55 21 -28 21
-28 160 -31 129 -3 140 -2 142 15 1 10 4 44 8 76 6 51 4 60 -15 78 -37 35 -20
108 35 143 15 11 22 22 17 27 -11 11 -79 20 -87 12z m-241 -223 c3 -5 1 -10
-4 -10 -6 0 -11 5 -11 10 0 6 2 10 4 10 3 0 8 -4 11 -10z"/>
<path d="M1805 296 c-24 -17 -29 -50 -10 -66 8 -7 15 -19 15 -28 0 -27 9 -7
16 34 3 21 7 41 9 44 2 3 0 11 -4 18 -5 9 -12 9 -26 -2z"/>
<path d="M10405 279 c-9 -27 7 -43 35 -34 21 7 25 40 5 40 -6 0 -15 4 -22 8
-7 4 -14 -1 -18 -14z"/>
<path d="M10508 243 c7 -3 16 -2 19 1 4 3 -2 6 -13 5 -11 0 -14 -3 -6 -6z"/>
<path d="M1855 121 c4 -30 11 -62 16 -70 13 -20 2 72 -12 103 -7 15 -8 5 -4
-33z"/>
<path d="M97 64 c-3 -4 -21 -8 -39 -9 -18 -2 -39 -3 -45 -4 -7 -1 -13 -10 -13
-21 0 -18 7 -20 69 -20 71 0 83 7 73 43 -4 16 -32 23 -45 11z"/>
<path d="M1832 35 c0 -17 2 -22 5 -12 2 9 2 23 0 30 -3 6 -5 -1 -5 -18z"/>
</g>
</svg>
